<svg version="1.0" xmlns="http://www.w3.org/2000/svg" width="933.333" height="933.333" viewBox="0 0 700 700"><path d="M331.7 5.6c-.1.1-5.2.5-11.4.8-6.2.4-12 .9-13 1-1 .2-4.5.7-7.8 1-6.4.7-13.9 2-24.4 4.1-45.6 9.1-95.3 31-132.8 58.7C95.8 105.4 59.5 148.6 34.8 199 16.4 236.6 5.1 277.7 1.2 320.5-.2 336.4.6 379.1 2.4 390c.3 1.4.7 4.7 1 7.5 3 25 14.3 65.3 25.3 89.5 26.4 58.6 64.9 106 115.8 142.6 28 20.2 65.9 38.9 99 48.9 11.9 3.6 33.4 8.8 41 10 2.2.3 6.7 1 10 1.5 5.7.9 8.4 1.2 22 2.5 3.3.3 11.6.6 18.5.8 11.6.1 12.8 0 15.7-2.1 4.9-3.5 6.4-10.9 3.2-16-2.5-4-6.9-5.1-21-5.7-12.3-.4-17-.8-26.9-2-1.9-.3-5.7-.7-8.4-1-5.7-.7-13.5-2.2-24.1-4.6-75.7-17.3-143-61.7-188.6-124.4-19.1-26.2-35.4-58.2-45.5-89.2-3.6-11.4-9-32.3-9.9-39.3-.4-2.4-.8-4.7-1-5-.2-.4-1.1-6-1.9-12.6-5.3-42.6-2.8-83.1 7.4-121.5 1.7-6.3 3.2-12.1 3.4-12.9 1.5-5.9 9.5-27.5 13.3-36C97.4 116.8 192.8 45.8 305.5 31.5c15.2-1.9 48.5-2.5 65-1.1 11.7.9 13.8 1.2 27.5 3.6 17.4 3 17.4 3 19 3.6.8.3 2.6.8 4 1 14.2 2.6 47 14.8 67.4 25.1 13.9 7 45.6 26.7 48.6 30.3.3.3 2.5 2.1 5 4 23.3 17.8 50.3 47 67.9 73.2 27.6 41.3 44.6 85.9 51.6 135.8 3.6 25.7 3.6 58.5-.1 82-7.5 48.4-23.7 89.6-52 132-9.7 14.6-29.2 39.6-30.1 38.6-.2-.2-.6-1.8-.8-3.5-.2-1.8-.6-4.8-.9-6.9-.3-2-1.3-9.3-2.1-16.2-.9-6.9-1.8-13.6-2-15-.2-1.4-.7-5-1-8-.3-3-.8-6.6-1-8-.2-1.4-.7-4.8-1-7.5-1.6-14.4-3.8-28.3-4.8-30.5-4.1-8.6-16.8-8.4-20.7.3-1 2.1-1.6 4.8-1.5 6 .2 1.2.6 4.7 1 7.7 1 8 1.4 10.9 2 16.5.3 2.7.8 6.1 1 7.5.2 1.4.7 4.5 1 7 .3 2.5.8 6.2 1.1 8.2.3 2 .7 5.4.9 7.5.2 2.1.6 5.6.9 7.8.3 2.2 1 7.8 1.6 12.5.6 4.7 1.3 9.6 1.5 11 .2 1.4.7 5 1 8 .4 3 .8 6.2 1 7 .6 3.4 2.1 15.3 2.3 18.7.3 2.9 5.4 7.9 9 8.6 1.6.3 5.8.2 9.3-.3 6.6-1 11.2-1.6 18.9-2.5 4.9-.6 11-1.4 15-2 2.3-.3 6.3-.8 17-2.1 2.5-.3 5.6-.7 7-.9 1.4-.2 4.5-.6 7-1 2.5-.3 6.1-.8 8-1 1.9-.3 5.8-.8 8.5-1.1 2.8-.3 6.1-.7 7.5-.9 1.4-.2 4.6-.6 7.2-.9 10.2-1.2 17.4-2.5 20-3.5 5.6-2.1 8-9.7 5.2-15.8-2.5-5.2-6.3-6.7-15.2-5.9-4.2.4-7.8.8-8.1 1-.3.2-3.8.7-7.7 1-3.9.4-8 .8-9.1 1-1.1.3-4.4.7-7.4 1.1-3 .3-6.5.8-7.9 1-1.4.2-4.7.7-7.5 1-2.7.3-6.1.8-7.5 1-2.6.4-8.2 1.1-16 2-2.5.3-5.5.7-6.7 1-3.2.6-2.9-.6 1.4-5.7 10.2-12.1 25.9-34.7 34.7-49.8 2-3.6 4.1-7.2 4.6-8 1.4-2.3 12.5-25.1 14.2-29 5.5-12.7 7.1-16.9 11.2-29 4.2-12.9 8.8-29.5 10.1-37 .3-1.9 1-5.3 1.5-7.5s1.1-6.4 1.5-9.4c.4-3 .9-6.3 1.1-7.5 2.6-13 2.5-62.9 0-80.1-.3-1.7-.7-4.8-1-7-3.5-26.6-13.7-62.5-24.8-87.5-4.7-10.5-12.5-26-16.5-32.8-2.4-4.1-4.3-7.6-4.3-7.8 0-.3-4-6.5-8.9-13.7-35.6-52.5-82.4-93-138.3-119.6C464.5 26 437.6 17.2 408 11.6c-1.4-.3-3.6-.7-5-1-5.1-1.2-25.8-3.6-35.5-4.2-8.9-.6-35.4-1.1-35.8-.8z"/><path d="M339.1 54.3c-5.5 2.8-6.6 5.9-6.9 19-.3 16.7.3 20 4 23.7 2.7 2.7 3.6 3.1 8 2.9 6-.3 10.3-3.9 11.4-9.4 1.1-6.3 0-29.8-1.6-32.3-3-4.5-10.2-6.4-14.9-3.9zm-200.1 83c-4.1 1.4-8 6.8-8 11 0 1.6.9 4.4 1.9 6.1 2.4 3.9 20.7 21.6 22.4 21.7.6 0 2.3.2 3.5.5 3.3.6 8.5-2.1 10.5-5.5 2.6-4.4 2.2-9.2-1.1-13.7-4-5.4-19.8-20.4-21.6-20.4-.8 0-2-.2-2.8-.4-.7-.3-2.9 0-4.8.7zm402.1.3c-3.4 1.4-19.1 16.4-22.3 21.3-3.8 5.6-1.6 13.1 4.5 16.3 6.6 3.3 9.5 2.1 20.9-9 5.5-5.3 10.6-10.9 11.4-12.4 5.1-9.8-4.5-20.4-14.5-16.2zm-203.2 12.7c-1.9 1.3-3.9 3.7-4.5 5.5-.7 2.2-1 34.9-.9 100.5 0 90.8.1 97.4 1.8 99.8 3.6 5.4 2 5.3 68.5 5.4 57.2 0 62-.1 65.3-1.8 4.3-2.1 6.3-5.5 6.2-10.4-.1-4.7-1.8-7.5-5.6-9.8-2.9-1.7-6.5-1.9-57.7-1.9l-54.5-.1-.2-89.6c-.1-99.3.2-95-6.6-98.2-4.7-2.3-7.8-2.1-11.8.6zM58 337.8c-3.8.6-8.9 4.9-9.8 8.5-1.8 6.7 2.5 13.4 9.4 14.6 2.2.4 9.4.6 16 .5 10.1-.1 12.8-.4 15.5-2 7.2-4.2 7.4-15.1.3-19.4-3.1-1.9-5-2.2-16.2-2.4-7 0-13.8.1-15.2.2zm547.6-.1c-.1.1-1.4.3-2.9.5-8.6 1.2-12.2 13-6 19.3 3.6 3.5 7 4.1 21.9 4 14.9-.2 18.3-1.4 20.8-7.4 2.2-5.7.4-11.2-5-14.7-2-1.4-5.2-1.7-15.6-1.8-7.1-.1-13.1 0-13.2.1zM156.1 522.8c-3.1.5-23.8 21.1-24.6 24.5-2.2 8.6 5.2 16.7 13.6 15 3.5-.7 17.8-13.5 23.1-20.7 7-9.7-.1-20.8-12.1-18.8zm181.7 77.9c-4.7 3-5.3 5.3-5.3 22.4V639l3.3 3.2c2.8 2.8 3.9 3.3 8.2 3.3 4.3 0 5.4-.5 8.2-3.3l3.3-3.2v-15.9c0-11.2-.4-16.5-1.3-18.3-2.9-5.4-11-7.4-16.4-4.1z"/></svg>