<?xml version="1.0" standalone="no"?>
<!DOCTYPE svg PUBLIC "-//W3C//DTD SVG 20010904//EN"
 "http://www.w3.org/TR/2001/REC-SVG-20010904/DTD/svg10.dtd">
<svg version="1.0" xmlns="http://www.w3.org/2000/svg"
 width="700.000000pt" height="700.000000pt" viewBox="0 0 700.000000 700.000000"
 preserveAspectRatio="xMidYMid meet">
<metadata>
Created by potrace 1.11, written by Peter Selinger 2001-2013
</metadata>
<g transform="translate(0.000000,700.000000) scale(0.100000,-0.100000)"
fill="#000000" stroke="none">
<path d="M3317 6944 c-1 -1 -52 -5 -114 -8 -62 -4 -120 -9 -130 -10 -10 -2
-45 -7 -78 -10 -64 -7 -139 -20 -244 -41 -456 -91 -953 -310 -1328 -587 -465
-342 -828 -774 -1075 -1278 -184 -376 -297 -787 -336 -1215 -14 -159 -6 -586
12 -695 3 -14 7 -47 10 -75 30 -250 143 -653 253 -895 264 -586 649 -1060
1158 -1426 280 -202 659 -389 990 -489 119 -36 334 -88 410 -100 22 -3 67 -10
100 -15 57 -9 84 -12 220 -25 33 -3 116 -6 185 -8 116 -1 128 0 157 21 49 35
64 109 32 160 -25 40 -69 51 -210 57 -123 4 -170 8 -269 20 -19 3 -57 7 -84
10 -57 7 -135 22 -241 46 -757 173 -1430 617 -1886 1244 -191 262 -354 582
-455 892 -36 114 -90 323 -99 393 -4 24 -8 47 -10 50 -2 4 -11 60 -19 126 -53
426 -28 831 74 1215 17 63 32 121 34 129 15 59 95 275 133 360 467 1042 1421
1752 2548 1895 152 19 485 25 650 11 117 -9 138 -12 275 -36 174 -30 174 -30
190 -36 8 -3 26 -8 40 -10 142 -26 470 -148 674 -251 139 -70 456 -267 486
-303 3 -3 25 -21 50 -40 233 -178 503 -470 679 -732 276 -413 446 -859 516
-1358 36 -257 36 -585 -1 -820 -75 -484 -237 -896 -520 -1320 -97 -146 -292
-396 -301 -386 -2 2 -6 18 -8 35 -2 18 -6 48 -9 69 -3 20 -13 93 -21 162 -9
69 -18 136 -20 150 -2 14 -7 50 -10 80 -3 30 -8 66 -10 80 -2 14 -7 48 -10 75
-16 144 -38 283 -48 305 -41 86 -168 84 -207 -3 -10 -21 -16 -48 -15 -60 2
-12 6 -47 10 -77 10 -80 14 -109 20 -165 3 -27 8 -61 10 -75 2 -14 7 -45 10
-70 3 -25 8 -62 11 -82 3 -20 7 -54 9 -75 2 -21 6 -56 9 -78 3 -22 10 -78 16
-125 6 -47 13 -96 15 -110 2 -14 7 -50 10 -80 4 -30 8 -62 10 -70 6 -34 21
-153 23 -187 3 -29 54 -79 90 -86 16 -3 58 -2 93 3 66 10 112 16 189 25 49 6
110 14 150 20 23 3 63 8 170 21 25 3 56 7 70 9 14 2 45 6 70 10 25 3 61 8 80
10 19 3 58 8 85 11 28 3 61 7 75 9 14 2 46 6 72 9 102 12 174 25 200 35 56 21
80 97 52 158 -25 52 -63 67 -152 59 -42 -4 -78 -8 -81 -10 -3 -2 -38 -7 -77
-10 -39 -4 -80 -8 -91 -10 -11 -3 -44 -7 -74 -11 -30 -3 -65 -8 -79 -10 -14
-2 -47 -7 -75 -10 -27 -3 -61 -8 -75 -10 -26 -4 -82 -11 -160 -20 -25 -3 -55
-7 -67 -10 -32 -6 -29 6 14 57 102 121 259 347 347 498 20 36 41 72 46 80 14
23 125 251 142 290 55 127 71 169 112 290 42 129 88 295 101 370 3 19 10 53
15 75 5 22 11 64 15 94 4 30 9 63 11 75 26 130 25 629 0 801 -3 17 -7 48 -10
70 -35 266 -137 625 -248 875 -47 105 -125 260 -165 328 -24 41 -43 76 -43 78
0 3 -40 65 -89 137 -356 525 -824 930 -1383 1196 -273 131 -542 219 -838 275
-14 3 -36 7 -50 10 -51 12 -258 36 -355 42 -89 6 -354 11 -358 8z"/>
<path d="M3391 6457 c-55 -28 -66 -59 -69 -190 -3 -167 3 -200 40 -237 27 -27
36 -31 80 -29 60 3 103 39 114 94 11 63 0 298 -16 323 -30 45 -102 64 -149 39z"/>
<path d="M1390 5627 c-41 -14 -80 -68 -80 -110 0 -16 9 -44 19 -61 24 -39 207
-216 224 -217 6 0 23 -2 35 -5 33 -6 85 21 105 55 26 44 22 92 -11 137 -40 54
-198 204 -216 204 -8 0 -20 2 -28 4 -7 3 -29 0 -48 -7z"/>
<path d="M5411 5624 c-34 -14 -191 -164 -223 -213 -38 -56 -16 -131 45 -163
66 -33 95 -21 209 90 55 53 106 109 114 124 51 98 -45 204 -145 162z"/>
<path d="M3379 5497 c-19 -13 -39 -37 -45 -55 -7 -22 -10 -349 -9 -1005 0
-908 1 -974 18 -998 36 -54 20 -53 685 -54 572 0 620 1 653 18 43 21 63 55 62
104 -1 47 -18 75 -56 98 -29 17 -65 19 -577 19 l-545 1 -2 896 c-1 993 2 950
-66 982 -47 23 -78 21 -118 -6z"/>
<path d="M580 3622 c-38 -6 -89 -49 -98 -85 -18 -67 25 -134 94 -146 22 -4 94
-6 160 -5 101 1 128 4 155 20 72 42 74 151 3 194 -31 19 -50 22 -162 24 -70 0
-138 -1 -152 -2z"/>
<path d="M6056 3623 c-1 -1 -14 -3 -29 -5 -86 -12 -122 -130 -60 -193 36 -35
70 -41 219 -40 149 2 183 14 208 74 22 57 4 112 -50 147 -20 14 -52 17 -156
18 -71 1 -131 0 -132 -1z"/>
<path d="M1561 1772 c-31 -5 -238 -211 -246 -245 -22 -86 52 -167 136 -150 35
7 178 135 231 207 70 97 -1 208 -121 188z"/>
<path d="M3378 993 c-47 -30 -53 -53 -53 -224 l0 -159 33 -32 c28 -28 39 -33
82 -33 43 0 54 5 82 33 l33 32 0 159 c0 112 -4 165 -13 183 -29 54 -110 74
-164 41z"/>
</g>
</svg>
