<svg height="512pt" viewBox="0 -4 512.012 512" width="512pt" xmlns="http://www.w3.org/2000/svg"><path d="M251.66 503.328C112.89 503.328 0 390.438 0 251.668S112.89.008 251.66.008c138.77 0 251.66 112.89 251.66 251.66 0 64.414-29.156 129.941-79.992 179.754-3.426 3.351-8.922 3.297-12.27-.129-3.351-3.418-3.296-8.914.13-12.27 47.519-46.566 74.777-107.566 74.777-167.355 0-129.2-105.106-234.305-234.305-234.305-129.195 0-234.305 105.106-234.305 234.305 0 129.195 105.11 234.305 234.305 234.305 4.793 0 8.68 3.886 8.68 8.675a8.68 8.68 0 01-8.68 8.68zm0 0"/><path d="M417.246 433.906a8.683 8.683 0 01-8.594-7.57l-11.09-86.066a8.677 8.677 0 017.5-9.72c4.727-.679 9.102 2.735 9.72 7.497l9.98 77.46 77.457-9.98c4.73-.675 9.105 2.735 9.719 7.496.617 4.758-2.743 9.106-7.497 9.723l-86.066 11.09c-.383.05-.758.07-1.129.07zM251.824 260.344a8.679 8.679 0 01-8.676-8.676V112.82c0-4.789 3.887-8.68 8.676-8.68 4.793 0 8.68 3.891 8.68 8.68v138.848c0 4.789-3.887 8.676-8.68 8.676zm0 0"/><path d="M338.605 260.344h-86.78a8.679 8.679 0 010-17.356h86.78c4.79 0 8.68 3.887 8.68 8.68 0 4.789-3.89 8.676-8.68 8.676zM251.66 69.43c-4.789 0-8.676-3.887-8.676-8.68V43.395a8.679 8.679 0 0117.356 0V60.75a8.68 8.68 0 01-8.68 8.68zm0 399.187c-4.789 0-8.676-3.89-8.676-8.68v-17.355a8.679 8.679 0 0117.356 0v17.356c0 4.789-3.887 8.68-8.68 8.68zM60.746 260.344H43.391c-4.793 0-8.68-3.887-8.68-8.676a8.68 8.68 0 018.68-8.68h17.355a8.679 8.679 0 010 17.355zm399.188 0h-17.356c-4.793 0-8.68-3.887-8.68-8.676a8.68 8.68 0 018.68-8.68h17.356a8.679 8.679 0 010 17.355zM116.668 125.352a8.658 8.658 0 01-6.137-2.543L98.25 110.527a8.671 8.671 0 010-12.27 8.669 8.669 0 0112.273 0l12.278 12.282a8.664 8.664 0 010 12.27 8.656 8.656 0 01-6.133 2.543zm-12.281 282.265a8.648 8.648 0 01-6.137-2.543 8.671 8.671 0 010-12.27l12.281-12.277a8.664 8.664 0 0112.27 0 8.664 8.664 0 010 12.27l-12.278 12.277a8.641 8.641 0 01-6.136 2.543zm282.269-282.265a8.658 8.658 0 01-6.136-2.543 8.671 8.671 0 010-12.27l12.28-12.281a8.664 8.664 0 0112.27 0 8.664 8.664 0 010 12.27l-12.28 12.28a8.649 8.649 0 01-6.134 2.544zm0 0"/></svg>